<mxfile host="Electron" agent="Mozilla/5.0 (Windows NT 10.0; Win64; x64) AppleWebKit/537.36 (KHTML, like Gecko) draw.io/26.2.2 Chrome/134.0.6998.178 Electron/35.1.2 Safari/537.36" version="26.2.2" pages="4">
  <diagram id="UJlyGFXVCkptwmDJzh81" name="level 1 - context">
    <mxGraphModel dx="1428" dy="841" grid="1" gridSize="10" guides="1" tooltips="1" connect="1" arrows="1" fold="1" page="1" pageScale="1" pageWidth="827" pageHeight="1169" background="#ffffff" math="0" shadow="0">
      <root>
        <object label="" id="0">
          <mxCell />
        </object>
        <mxCell id="1" parent="0" />
        <object label="&lt;span style=&quot;font-size: 10px&quot;&gt;&lt;br&gt;&lt;b&gt;%name%&lt;/b&gt;&lt;br&gt;&lt;br&gt;&lt;/span&gt;" placeholders="1" name="Usa" id="5cVvOpawmlWqnZKX2nME-12">
          <mxCell style="endArrow=block;html=1;fontSize=10;fontColor=#404040;strokeWidth=1;endFill=1;strokeColor=#828282;elbow=vertical;metaEdit=1;exitX=0.5;exitY=1;exitDx=0;exitDy=0;entryX=0.5;entryY=0;entryDx=0;entryDy=0;" parent="1" edge="1" target="dcKwWc84L9W_I8fYm-3h-2" source="_E3jYcBlB1CncjWAGzBo-2">
            <mxGeometry width="50" height="50" relative="1" as="geometry">
              <mxPoint x="320" y="439" as="sourcePoint" />
              <mxPoint x="520" y="439" as="targetPoint" />
            </mxGeometry>
          </mxCell>
        </object>
        <object label="&lt;div&gt;&lt;span style=&quot;font-size: 14px&quot;&gt;&lt;b&gt;%name%&lt;/b&gt;&lt;/span&gt;&lt;/div&gt;&lt;div&gt;&lt;span style=&quot;font-size: 8px&quot;&gt;[Software System]&lt;/span&gt;&lt;/div&gt;&lt;div&gt;&lt;span style=&quot;font-size: 8px&quot;&gt;&lt;br&gt;&lt;/span&gt;&lt;/div&gt;&lt;div&gt;&lt;font size=&quot;1&quot;&gt;%description%&lt;/font&gt;&lt;/div&gt;" placeholders="1" name="API de Vendas" description="API que disponibiliza dados de Cliente/Produto/Pedido e demais domínios aos&#xa;parceiros da empresa." link="data:page/id,0BAlT2Un5eadbHKbMfql" id="dcKwWc84L9W_I8fYm-3h-2">
          <mxCell style="rounded=0;whiteSpace=wrap;html=1;fillColor=#0067BA;fontColor=#FFFFFF;strokeColor=#005DA8;resizable=0;rotatable=0;metaEdit=1;allowArrows=0;" parent="1" vertex="1">
            <mxGeometry x="80" y="290" width="180" height="120" as="geometry" />
          </mxCell>
        </object>
        <object label="" placeholders="1" instruction="edit data of the lower shape within the group" id="_E3jYcBlB1CncjWAGzBo-1">
          <mxCell style="group;resizable=0;rotatable=0;metaEdit=1;allowArrows=0;" parent="1" vertex="1" connectable="0">
            <mxGeometry x="90" width="160" height="170" as="geometry" />
          </mxCell>
        </object>
        <object label="&lt;div style=&quot;color: rgb(255 , 255 , 255) ; white-space: normal&quot;&gt;&lt;span style=&quot;font-size: 14px&quot;&gt;&lt;b&gt;%name%&lt;/b&gt;&lt;/span&gt;&lt;/div&gt;&lt;div style=&quot;color: rgb(255 , 255 , 255) ; white-space: normal&quot;&gt;&lt;font style=&quot;font-size: 8px&quot;&gt;[Person]&lt;/font&gt;&lt;/div&gt;&lt;div style=&quot;color: rgb(255 , 255 , 255) ; white-space: normal ; font-size: 8px&quot;&gt;&lt;span style=&quot;font-size: x-small&quot;&gt;&lt;br&gt;&lt;/span&gt;&lt;/div&gt;&lt;div style=&quot;color: rgb(255 , 255 , 255) ; white-space: normal&quot;&gt;&lt;font size=&quot;1&quot;&gt;%description%&lt;/font&gt;&lt;/div&gt;" name="Cliente Parceiro" description="Pessoa da empresa parceira" placeholders="1" id="_E3jYcBlB1CncjWAGzBo-2">
          <mxCell style="rounded=1;whiteSpace=wrap;html=1;strokeColor=#828282;fillColor=#999999;fontColor=#000000;arcSize=31;metaEdit=1;allowArrows=0;" parent="_E3jYcBlB1CncjWAGzBo-1" vertex="1">
            <mxGeometry y="70" width="160" height="100" as="geometry" />
          </mxCell>
        </object>
        <mxCell id="_E3jYcBlB1CncjWAGzBo-3" value="" style="ellipse;whiteSpace=wrap;html=1;aspect=fixed;strokeColor=#828282;fillColor=#999999;fontColor=#000000;allowArrows=0;" parent="_E3jYcBlB1CncjWAGzBo-1" vertex="1">
          <mxGeometry x="40" width="80" height="80" as="geometry" />
        </mxCell>
      </root>
    </mxGraphModel>
  </diagram>
  <diagram name="level 2 - containers" id="0BAlT2Un5eadbHKbMfql">
    <mxGraphModel dx="1428" dy="841" grid="1" gridSize="10" guides="1" tooltips="1" connect="1" arrows="1" fold="1" page="1" pageScale="1" pageWidth="827" pageHeight="1169" background="#ffffff" math="0" shadow="0">
      <root>
        <object label="" id="K5Q4B2npVHUka7PURw0_-0">
          <mxCell />
        </object>
        <mxCell id="K5Q4B2npVHUka7PURw0_-1" parent="K5Q4B2npVHUka7PURw0_-0" />
        <object label="&lt;font style=&quot;font-size: 10px&quot;&gt;&lt;b&gt;%name%&lt;/b&gt;&lt;br style=&quot;font-size: 10px&quot;&gt;[Software System]&lt;/font&gt;" placeholders="1" name="Empresa de Vendas On-line" id="K5Q4B2npVHUka7PURw0_-6">
          <mxCell style="rounded=0;whiteSpace=wrap;html=1;strokeColor=#828282;fontColor=#000000;align=left;labelPosition=center;verticalLabelPosition=middle;verticalAlign=bottom;strokeWidth=1;perimeterSpacing=0;spacing=4;spacingTop=0;fontSize=10;fillColor=none;dashed=1;dashPattern=14 14;rotatable=0;metaEdit=1;allowArrows=0;" vertex="1" parent="K5Q4B2npVHUka7PURw0_-1">
            <mxGeometry x="320" width="300" height="650" as="geometry" />
          </mxCell>
        </object>
        <object label="&lt;div style=&quot;color: rgb(255 , 255 , 255) ; white-space: normal&quot;&gt;&lt;span style=&quot;font-size: 14px&quot;&gt;&lt;b&gt;%name%&lt;/b&gt;&lt;/span&gt;&lt;/div&gt;&lt;div style=&quot;color: rgb(255 , 255 , 255) ; font-size: 12px ; white-space: normal&quot;&gt;&lt;font style=&quot;font-size: 8px&quot;&gt;[Container: %technology%]&lt;/font&gt;&lt;/div&gt;&lt;div style=&quot;color: rgb(255 , 255 , 255) ; white-space: normal ; font-size: 8px&quot;&gt;&lt;font style=&quot;line-height: 9.6px&quot;&gt;&lt;br&gt;&lt;/font&gt;&lt;/div&gt;&lt;div style=&quot;color: rgb(255 , 255 , 255) ; white-space: normal&quot;&gt;%description%&lt;/div&gt;" placeholders="1" name="API Database" description="Armazena os dados dos domínios no formato de documentos." technology="Banco de dados NoSQL - Documentos" id="K5Q4B2npVHUka7PURw0_-7">
          <mxCell style="shape=cylinder;whiteSpace=wrap;html=1;boundedLbl=1;backgroundOutline=1;strokeColor=#2F6FA6;strokeWidth=1;fillColor=#3B8CD2;fontSize=9;fontColor=#000000;align=center;resizable=0;rotatable=0;metaEdit=1;allowArrows=0;" vertex="1" parent="K5Q4B2npVHUka7PURw0_-1">
            <mxGeometry x="380" y="400" width="180" height="120" as="geometry" />
          </mxCell>
        </object>
        <object label="&lt;span style=&quot;font-size: 10px&quot;&gt;&lt;b&gt;%name%&lt;/b&gt;&lt;br&gt;[%technology%]&lt;br&gt;&lt;/span&gt;" placeholders="1" name="Usa" technology="HTTP" id="6TDeumxWS_gDEpv5JTaS-5">
          <mxCell style="endArrow=block;html=1;fontSize=10;fontColor=#404040;strokeWidth=1;endFill=1;strokeColor=#828282;elbow=vertical;metaEdit=1;exitX=1;exitY=0.5;exitDx=0;exitDy=0;entryX=0;entryY=0.5;entryDx=0;entryDy=0;" edge="1" parent="K5Q4B2npVHUka7PURw0_-1" source="6TDeumxWS_gDEpv5JTaS-8" target="y8PEJxuTZjdIAa-UcHYZ-0">
            <mxGeometry width="50" height="50" relative="1" as="geometry">
              <mxPoint x="330" y="449" as="sourcePoint" />
              <mxPoint x="530" y="449" as="targetPoint" />
              <mxPoint as="offset" />
            </mxGeometry>
          </mxCell>
        </object>
        <object label="" placeholders="1" instruction="edit data of the lower shape within the group" id="6TDeumxWS_gDEpv5JTaS-7">
          <mxCell style="group;resizable=0;rotatable=0;metaEdit=1;allowArrows=0;" vertex="1" connectable="0" parent="K5Q4B2npVHUka7PURw0_-1">
            <mxGeometry x="100" y="10" width="160" height="170" as="geometry" />
          </mxCell>
        </object>
        <object label="&lt;div style=&quot;color: rgb(255 , 255 , 255) ; white-space: normal&quot;&gt;&lt;span style=&quot;font-size: 14px&quot;&gt;&lt;b&gt;%name%&lt;/b&gt;&lt;/span&gt;&lt;/div&gt;&lt;div style=&quot;color: rgb(255 , 255 , 255) ; white-space: normal&quot;&gt;&lt;font style=&quot;font-size: 8px&quot;&gt;[Person]&lt;/font&gt;&lt;/div&gt;&lt;div style=&quot;color: rgb(255 , 255 , 255) ; white-space: normal ; font-size: 8px&quot;&gt;&lt;span style=&quot;font-size: x-small&quot;&gt;&lt;br&gt;&lt;/span&gt;&lt;/div&gt;&lt;div style=&quot;color: rgb(255 , 255 , 255) ; white-space: normal&quot;&gt;&lt;font size=&quot;1&quot;&gt;%description%&lt;/font&gt;&lt;/div&gt;" name="Cliente Parceiro" description="Pessoa da empresa parceira" placeholders="1" id="6TDeumxWS_gDEpv5JTaS-8">
          <mxCell style="rounded=1;whiteSpace=wrap;html=1;strokeColor=#828282;fillColor=#999999;fontColor=#000000;arcSize=31;metaEdit=1;allowArrows=0;" vertex="1" parent="6TDeumxWS_gDEpv5JTaS-7">
            <mxGeometry y="70" width="160" height="100" as="geometry" />
          </mxCell>
        </object>
        <mxCell id="6TDeumxWS_gDEpv5JTaS-9" value="" style="ellipse;whiteSpace=wrap;html=1;aspect=fixed;strokeColor=#828282;fillColor=#999999;fontColor=#000000;allowArrows=0;" vertex="1" parent="6TDeumxWS_gDEpv5JTaS-7">
          <mxGeometry x="40" width="80" height="80" as="geometry" />
        </mxCell>
        <object label="&lt;b&gt;%name%&lt;/b&gt;&lt;br style=&quot;font-size: 10px&quot;&gt;[%technology%]" placeholders="1" name="Leituras e escritas" technology="MongoDB Wire Protocol" id="MJX88zvufjlqHXUE-Bpd-0">
          <mxCell style="endArrow=block;html=1;fontSize=10;fontColor=#404040;strokeWidth=1;endFill=1;dashed=1;dashPattern=8 8;strokeColor=#828282;elbow=vertical;metaEdit=1;exitX=0.5;exitY=1;exitDx=0;exitDy=0;entryX=0.5;entryY=0;entryDx=0;entryDy=0;" edge="1" parent="K5Q4B2npVHUka7PURw0_-1" source="y8PEJxuTZjdIAa-UcHYZ-0" target="K5Q4B2npVHUka7PURw0_-7">
            <mxGeometry width="50" height="50" relative="1" as="geometry">
              <mxPoint x="320" y="399" as="sourcePoint" />
              <mxPoint x="520" y="399" as="targetPoint" />
              <mxPoint as="offset" />
            </mxGeometry>
          </mxCell>
        </object>
        <object label="&lt;div&gt;&lt;span style=&quot;font-size: 14px&quot;&gt;&lt;b&gt;%name%&lt;/b&gt;&lt;/span&gt;&lt;/div&gt;&lt;div&gt;&lt;span style=&quot;font-size: 8px&quot;&gt;[Container: %technology%]&lt;/span&gt;&lt;/div&gt;&lt;div&gt;&lt;span style=&quot;font-size: 8px&quot;&gt;&lt;br&gt;&lt;/span&gt;&lt;/div&gt;&lt;div&gt;&lt;font size=&quot;1&quot;&gt;%description%&lt;/font&gt;&lt;/div&gt;" placeholders="1" name="API de Vendas" technology="Java e Spring" description="API que disponibiliza dados de Cliente/Produto/Pedido e demais domínios aos&#xa;parceiros da empresa." link="data:page/id,VfcjeeiCJOMOLdngp-JE" id="y8PEJxuTZjdIAa-UcHYZ-0">
          <mxCell style="rounded=0;whiteSpace=wrap;html=1;fillColor=#3B8CD2;fontColor=#FFFFFF;strokeColor=#2F6FA6;resizable=0;rotatable=0;metaEdit=1;allowArrows=0;" vertex="1" parent="K5Q4B2npVHUka7PURw0_-1">
            <mxGeometry x="380" y="70" width="180" height="120" as="geometry" />
          </mxCell>
        </object>
      </root>
    </mxGraphModel>
  </diagram>
  <diagram name="level 3 - components" id="VfcjeeiCJOMOLdngp-JE">
    <mxGraphModel dx="1428" dy="2010" grid="1" gridSize="10" guides="1" tooltips="1" connect="1" arrows="1" fold="1" page="1" pageScale="1" pageWidth="827" pageHeight="1169" background="#ffffff" math="0" shadow="0">
      <root>
        <object label="" id="gKGEh-T8jXEcblkLXW2U-0">
          <mxCell />
        </object>
        <mxCell id="gKGEh-T8jXEcblkLXW2U-1" parent="gKGEh-T8jXEcblkLXW2U-0" />
        <object label="&lt;font style=&quot;font-size: 10px&quot;&gt;&lt;b&gt;%name%&lt;/b&gt;&lt;br style=&quot;font-size: 10px&quot;&gt;[Container]&lt;/font&gt;" placeholders="1" name="Aplicação Web (API Rest)" id="TCqwp3xKXtpxxQ4AMs_9-0">
          <mxCell style="rounded=0;whiteSpace=wrap;html=1;strokeColor=#828282;fontColor=#000000;align=left;labelPosition=center;verticalLabelPosition=middle;verticalAlign=bottom;strokeWidth=1;perimeterSpacing=0;spacing=4;spacingTop=0;fontSize=10;fillColor=none;dashed=1;dashPattern=14 14;rotatable=0;metaEdit=1;allowArrows=0;" vertex="1" parent="gKGEh-T8jXEcblkLXW2U-1">
            <mxGeometry x="320" y="260" width="960" height="830" as="geometry" />
          </mxCell>
        </object>
        <object label="&lt;div style=&quot;color: rgb(255 , 255 , 255) ; white-space: normal&quot;&gt;&lt;span style=&quot;font-size: 14px&quot;&gt;&lt;b&gt;%name%&lt;/b&gt;&lt;/span&gt;&lt;/div&gt;&lt;div style=&quot;color: rgb(255 , 255 , 255) ; font-size: 12px ; white-space: normal&quot;&gt;&lt;font style=&quot;font-size: 8px&quot;&gt;[Container: %technology%]&lt;/font&gt;&lt;/div&gt;&lt;div style=&quot;color: rgb(255 , 255 , 255) ; white-space: normal ; font-size: 8px&quot;&gt;&lt;font style=&quot;line-height: 9.6px&quot;&gt;&lt;br&gt;&lt;/font&gt;&lt;/div&gt;&lt;div style=&quot;color: rgb(255 , 255 , 255) ; white-space: normal&quot;&gt;%description%&lt;/div&gt;" placeholders="1" name="API Database" description="Armazena os dados dos domínios no formato de documentos." technology="Banco de dados NoSQL - Documentos" id="TCqwp3xKXtpxxQ4AMs_9-1">
          <mxCell style="shape=cylinder;whiteSpace=wrap;html=1;boundedLbl=1;backgroundOutline=1;strokeColor=#2F6FA6;strokeWidth=1;fillColor=#3B8CD2;fontSize=9;fontColor=#000000;align=center;resizable=0;rotatable=0;metaEdit=1;allowArrows=0;" vertex="1" parent="gKGEh-T8jXEcblkLXW2U-1">
            <mxGeometry x="740" y="1170" width="180" height="120" as="geometry" />
          </mxCell>
        </object>
        <object label="&lt;span style=&quot;font-size: 10px&quot;&gt;&lt;b&gt;%name%&lt;/b&gt;&lt;br&gt;[%technology%]&lt;br&gt;&lt;/span&gt;" placeholders="1" name="Usa" technology="HTTP" id="TCqwp3xKXtpxxQ4AMs_9-2">
          <mxCell style="endArrow=block;html=1;fontSize=10;fontColor=#404040;strokeWidth=1;endFill=1;strokeColor=#828282;elbow=vertical;metaEdit=1;exitX=0.25;exitY=1;exitDx=0;exitDy=0;entryX=0.5;entryY=0;entryDx=0;entryDy=0;dashed=1;dashPattern=8 8;" edge="1" parent="gKGEh-T8jXEcblkLXW2U-1" source="TCqwp3xKXtpxxQ4AMs_9-5" target="EYEy7cfJpxvmavlVpXTG-0">
            <mxGeometry width="50" height="50" relative="1" as="geometry">
              <mxPoint x="330" y="449" as="sourcePoint" />
              <mxPoint x="530" y="449" as="targetPoint" />
              <mxPoint as="offset" />
            </mxGeometry>
          </mxCell>
        </object>
        <object label="" placeholders="1" instruction="edit data of the lower shape within the group" id="TCqwp3xKXtpxxQ4AMs_9-4">
          <mxCell style="group;resizable=0;rotatable=0;metaEdit=1;allowArrows=0;" vertex="1" connectable="0" parent="gKGEh-T8jXEcblkLXW2U-1">
            <mxGeometry x="750" y="-20" width="160" height="170" as="geometry" />
          </mxCell>
        </object>
        <object label="&lt;div style=&quot;color: rgb(255 , 255 , 255) ; white-space: normal&quot;&gt;&lt;span style=&quot;font-size: 14px&quot;&gt;&lt;b&gt;%name%&lt;/b&gt;&lt;/span&gt;&lt;/div&gt;&lt;div style=&quot;color: rgb(255 , 255 , 255) ; white-space: normal&quot;&gt;&lt;font style=&quot;font-size: 8px&quot;&gt;[Person]&lt;/font&gt;&lt;/div&gt;&lt;div style=&quot;color: rgb(255 , 255 , 255) ; white-space: normal ; font-size: 8px&quot;&gt;&lt;span style=&quot;font-size: x-small&quot;&gt;&lt;br&gt;&lt;/span&gt;&lt;/div&gt;&lt;div style=&quot;color: rgb(255 , 255 , 255) ; white-space: normal&quot;&gt;&lt;font size=&quot;1&quot;&gt;%description%&lt;/font&gt;&lt;/div&gt;" name="Cliente Parceiro" description="Pessoa da empresa parceira" placeholders="1" id="TCqwp3xKXtpxxQ4AMs_9-5">
          <mxCell style="rounded=1;whiteSpace=wrap;html=1;strokeColor=#828282;fillColor=#999999;fontColor=#000000;arcSize=31;metaEdit=1;allowArrows=0;" vertex="1" parent="TCqwp3xKXtpxxQ4AMs_9-4">
            <mxGeometry y="70" width="160" height="100" as="geometry" />
          </mxCell>
        </object>
        <mxCell id="TCqwp3xKXtpxxQ4AMs_9-6" value="" style="ellipse;whiteSpace=wrap;html=1;aspect=fixed;strokeColor=#828282;fillColor=#999999;fontColor=#000000;allowArrows=0;" vertex="1" parent="TCqwp3xKXtpxxQ4AMs_9-4">
          <mxGeometry x="40" width="80" height="80" as="geometry" />
        </mxCell>
        <object label="&lt;b&gt;%name%&lt;/b&gt;&lt;br style=&quot;font-size: 10px&quot;&gt;[%technology%]" placeholders="1" name="Leituras e escritas" technology="MongoDB Wire Protocol" id="TCqwp3xKXtpxxQ4AMs_9-7">
          <mxCell style="endArrow=block;html=1;fontSize=10;fontColor=#404040;strokeWidth=1;endFill=1;dashed=1;dashPattern=8 8;strokeColor=#828282;elbow=vertical;metaEdit=1;exitX=0.5;exitY=1;exitDx=0;exitDy=0;entryX=0.111;entryY=0.075;entryDx=0;entryDy=0;entryPerimeter=0;" edge="1" parent="gKGEh-T8jXEcblkLXW2U-1" source="WdNwXkr6vVzg-8q5nkpL-3" target="TCqwp3xKXtpxxQ4AMs_9-1">
            <mxGeometry width="50" height="50" relative="1" as="geometry">
              <mxPoint x="320" y="1244" as="sourcePoint" />
              <mxPoint x="520" y="1244" as="targetPoint" />
              <mxPoint as="offset" />
            </mxGeometry>
          </mxCell>
        </object>
        <object label="&lt;div&gt;&lt;span style=&quot;font-size: 14px&quot;&gt;&lt;b&gt;%name%&lt;/b&gt;&lt;/span&gt;&lt;/div&gt;&lt;div&gt;&lt;span style=&quot;font-size: 8px&quot;&gt;[Component: %technology%]&lt;/span&gt;&lt;/div&gt;&lt;div&gt;&lt;span style=&quot;font-size: 8px&quot;&gt;&lt;br&gt;&lt;/span&gt;&lt;/div&gt;&lt;div&gt;&lt;font size=&quot;1&quot;&gt;%description%&lt;/font&gt;&lt;/div&gt;" placeholders="1" name="ProductController" technology="Spring MVC Controller" description="Deserializa o corpo da requisição JSON para um objeto Product" id="EYEy7cfJpxvmavlVpXTG-0">
          <mxCell style="rounded=0;whiteSpace=wrap;html=1;fillColor=#85baf0;fontColor=#000000;strokeColor=#6992BD;resizable=0;rotatable=0;metaEdit=1;allowArrows=0;" vertex="1" parent="gKGEh-T8jXEcblkLXW2U-1">
            <mxGeometry x="490" y="310" width="180" height="120" as="geometry" />
          </mxCell>
        </object>
        <object label="&lt;div&gt;&lt;span style=&quot;font-size: 14px&quot;&gt;&lt;b&gt;%name%&lt;/b&gt;&lt;/span&gt;&lt;/div&gt;&lt;div&gt;&lt;span style=&quot;font-size: 8px&quot;&gt;[Component: %technology%]&lt;/span&gt;&lt;/div&gt;&lt;div&gt;&lt;span style=&quot;font-size: 8px&quot;&gt;&lt;br&gt;&lt;/span&gt;&lt;/div&gt;&lt;div&gt;&lt;font size=&quot;1&quot;&gt;%description%&lt;/font&gt;&lt;/div&gt;" placeholders="1" name="ProductService" technology="Spring Service" description="Componente da camada de serviço que encapsula a lógica de negócio para a entidade Product" id="NIgqf-OumGdhxon0FNOD-0">
          <mxCell style="rounded=0;whiteSpace=wrap;html=1;fillColor=#85baf0;fontColor=#000000;strokeColor=#6992BD;resizable=0;rotatable=0;metaEdit=1;allowArrows=0;" vertex="1" parent="gKGEh-T8jXEcblkLXW2U-1">
            <mxGeometry x="490" y="530" width="180" height="120" as="geometry" />
          </mxCell>
        </object>
        <object label="&lt;span style=&quot;font-size: 10px&quot;&gt;&lt;b&gt;%name%&lt;/b&gt;&lt;br&gt;&lt;/span&gt;" placeholders="1" name="Aciona" id="WdNwXkr6vVzg-8q5nkpL-0">
          <mxCell style="endArrow=block;html=1;fontSize=10;fontColor=#404040;strokeWidth=1;endFill=1;strokeColor=#828282;elbow=vertical;metaEdit=1;exitX=0.5;exitY=1;exitDx=0;exitDy=0;entryX=0.5;entryY=0;entryDx=0;entryDy=0;" edge="1" parent="gKGEh-T8jXEcblkLXW2U-1" source="EYEy7cfJpxvmavlVpXTG-0" target="NIgqf-OumGdhxon0FNOD-0">
            <mxGeometry width="50" height="50" relative="1" as="geometry">
              <mxPoint x="480" y="670" as="sourcePoint" />
              <mxPoint x="680" y="670" as="targetPoint" />
              <mxPoint as="offset" />
            </mxGeometry>
          </mxCell>
        </object>
        <object label="&lt;div&gt;&lt;span style=&quot;font-size: 14px&quot;&gt;&lt;b&gt;%name%&lt;/b&gt;&lt;/span&gt;&lt;/div&gt;&lt;div&gt;&lt;span style=&quot;font-size: 8px&quot;&gt;[Component: %technology%]&lt;/span&gt;&lt;/div&gt;&lt;div&gt;&lt;span style=&quot;font-size: 8px&quot;&gt;&lt;br&gt;&lt;/span&gt;&lt;/div&gt;&lt;div&gt;&lt;font size=&quot;1&quot;&gt;%description%&lt;/font&gt;&lt;/div&gt;" placeholders="1" name="ProductRepository" technology="Spring Repository" description="Componente da camada de acesso a dados que abstrai a interação com a collection product no MongoDB." id="WdNwXkr6vVzg-8q5nkpL-1">
          <mxCell style="rounded=0;whiteSpace=wrap;html=1;fillColor=#85baf0;fontColor=#000000;strokeColor=#6992BD;resizable=0;rotatable=0;metaEdit=1;allowArrows=0;" vertex="1" parent="gKGEh-T8jXEcblkLXW2U-1">
            <mxGeometry x="490" y="730" width="180" height="120" as="geometry" />
          </mxCell>
        </object>
        <object label="&lt;span style=&quot;font-size: 10px&quot;&gt;&lt;b&gt;%name%&lt;/b&gt;&lt;br&gt;&lt;/span&gt;" placeholders="1" name="Aciona" id="WdNwXkr6vVzg-8q5nkpL-2">
          <mxCell style="endArrow=block;html=1;fontSize=10;fontColor=#404040;strokeWidth=1;endFill=1;strokeColor=#828282;elbow=vertical;metaEdit=1;exitX=0.5;exitY=1;exitDx=0;exitDy=0;" edge="1" parent="gKGEh-T8jXEcblkLXW2U-1" source="NIgqf-OumGdhxon0FNOD-0" target="WdNwXkr6vVzg-8q5nkpL-1">
            <mxGeometry width="50" height="50" relative="1" as="geometry">
              <mxPoint x="590" y="440" as="sourcePoint" />
              <mxPoint x="590" y="540" as="targetPoint" />
              <mxPoint as="offset" />
            </mxGeometry>
          </mxCell>
        </object>
        <object label="&lt;div&gt;&lt;span style=&quot;font-size: 14px&quot;&gt;&lt;b&gt;%name%&lt;/b&gt;&lt;/span&gt;&lt;/div&gt;&lt;div&gt;&lt;span style=&quot;font-size: 8px&quot;&gt;[Component: %technology%]&lt;/span&gt;&lt;/div&gt;&lt;div&gt;&lt;span style=&quot;font-size: 8px&quot;&gt;&lt;br&gt;&lt;/span&gt;&lt;/div&gt;&lt;div&gt;&lt;font size=&quot;1&quot;&gt;%description%&lt;/font&gt;&lt;/div&gt;" placeholders="1" name="Product" technology="Spring Model" description="Componente da camada de modelo que representa a estrutura de um documento na collection" id="WdNwXkr6vVzg-8q5nkpL-3">
          <mxCell style="rounded=0;whiteSpace=wrap;html=1;fillColor=#85baf0;fontColor=#000000;strokeColor=#6992BD;resizable=0;rotatable=0;metaEdit=1;allowArrows=0;" vertex="1" parent="gKGEh-T8jXEcblkLXW2U-1">
            <mxGeometry x="490" y="930" width="180" height="120" as="geometry" />
          </mxCell>
        </object>
        <object label="&lt;span style=&quot;font-size: 10px&quot;&gt;&lt;b&gt;%name%&lt;/b&gt;&lt;br&gt;&lt;/span&gt;" placeholders="1" name="Aciona" id="Ph4ZR-Hd9J2gCoXBtBDj-0">
          <mxCell style="endArrow=block;html=1;fontSize=10;fontColor=#404040;strokeWidth=1;endFill=1;strokeColor=#828282;elbow=vertical;metaEdit=1;exitX=0.5;exitY=1;exitDx=0;exitDy=0;" edge="1" parent="gKGEh-T8jXEcblkLXW2U-1" source="WdNwXkr6vVzg-8q5nkpL-1">
            <mxGeometry width="50" height="50" relative="1" as="geometry">
              <mxPoint x="579.5" y="870" as="sourcePoint" />
              <mxPoint x="580" y="930" as="targetPoint" />
              <mxPoint as="offset" />
            </mxGeometry>
          </mxCell>
        </object>
        <object label="&lt;span style=&quot;font-size: 10px&quot;&gt;&lt;b&gt;%name%&lt;/b&gt;&lt;br&gt;[%technology%]&lt;br&gt;&lt;/span&gt;" placeholders="1" name="Usa" technology="HTTP" id="OButciLznm7XMF_AVGfb-0">
          <mxCell style="endArrow=block;html=1;fontSize=10;fontColor=#404040;strokeWidth=1;endFill=1;strokeColor=#828282;elbow=vertical;metaEdit=1;exitX=0.5;exitY=1;exitDx=0;exitDy=0;entryX=0.5;entryY=0;entryDx=0;entryDy=0;dashed=1;dashPattern=8 8;" edge="1" parent="gKGEh-T8jXEcblkLXW2U-1" target="OButciLznm7XMF_AVGfb-2" source="TCqwp3xKXtpxxQ4AMs_9-5">
            <mxGeometry width="50" height="50" relative="1" as="geometry">
              <mxPoint x="720" y="140" as="sourcePoint" />
              <mxPoint x="780" y="449" as="targetPoint" />
              <mxPoint as="offset" />
            </mxGeometry>
          </mxCell>
        </object>
        <object label="&lt;b&gt;%name%&lt;/b&gt;&lt;br style=&quot;font-size: 10px&quot;&gt;[%technology%]" placeholders="1" name="Leituras e escritas" technology="MongoDB Wire Protocol" id="OButciLznm7XMF_AVGfb-1">
          <mxCell style="endArrow=block;html=1;fontSize=10;fontColor=#404040;strokeWidth=1;endFill=1;dashed=1;dashPattern=8 8;strokeColor=#828282;elbow=vertical;metaEdit=1;exitX=0.5;exitY=1;exitDx=0;exitDy=0;entryX=0.5;entryY=0;entryDx=0;entryDy=0;" edge="1" parent="gKGEh-T8jXEcblkLXW2U-1" source="OButciLznm7XMF_AVGfb-7" target="TCqwp3xKXtpxxQ4AMs_9-1">
            <mxGeometry width="50" height="50" relative="1" as="geometry">
              <mxPoint x="570" y="1244" as="sourcePoint" />
              <mxPoint x="820" y="1177" as="targetPoint" />
              <mxPoint as="offset" />
            </mxGeometry>
          </mxCell>
        </object>
        <object label="&lt;div&gt;&lt;span style=&quot;font-size: 14px&quot;&gt;&lt;b&gt;%name%&lt;/b&gt;&lt;/span&gt;&lt;/div&gt;&lt;div&gt;&lt;span style=&quot;font-size: 8px&quot;&gt;[Component: %technology%]&lt;/span&gt;&lt;/div&gt;&lt;div&gt;&lt;span style=&quot;font-size: 8px&quot;&gt;&lt;br&gt;&lt;/span&gt;&lt;/div&gt;&lt;div&gt;&lt;font size=&quot;1&quot;&gt;%description%&lt;/font&gt;&lt;/div&gt;" placeholders="1" name="CustomerController" technology="Spring MVC Controller" description="Deserializa o corpo da requisição JSON para um objeto Customer" id="OButciLznm7XMF_AVGfb-2">
          <mxCell style="rounded=0;whiteSpace=wrap;html=1;fillColor=#85baf0;fontColor=#000000;strokeColor=#6992BD;resizable=0;rotatable=0;metaEdit=1;allowArrows=0;" vertex="1" parent="gKGEh-T8jXEcblkLXW2U-1">
            <mxGeometry x="740" y="310" width="180" height="120" as="geometry" />
          </mxCell>
        </object>
        <object label="&lt;div&gt;&lt;span style=&quot;font-size: 14px&quot;&gt;&lt;b&gt;%name%&lt;/b&gt;&lt;/span&gt;&lt;/div&gt;&lt;div&gt;&lt;span style=&quot;font-size: 8px&quot;&gt;[Component: %technology%]&lt;/span&gt;&lt;/div&gt;&lt;div&gt;&lt;span style=&quot;font-size: 8px&quot;&gt;&lt;br&gt;&lt;/span&gt;&lt;/div&gt;&lt;div&gt;&lt;font size=&quot;1&quot;&gt;%description%&lt;/font&gt;&lt;/div&gt;" placeholders="1" name="CustomerService" technology="Spring Service" description="Componente da camada de serviço que encapsula a lógica de negócio para a entidade Customer" id="OButciLznm7XMF_AVGfb-3">
          <mxCell style="rounded=0;whiteSpace=wrap;html=1;fillColor=#85baf0;fontColor=#000000;strokeColor=#6992BD;resizable=0;rotatable=0;metaEdit=1;allowArrows=0;" vertex="1" parent="gKGEh-T8jXEcblkLXW2U-1">
            <mxGeometry x="740" y="530" width="180" height="120" as="geometry" />
          </mxCell>
        </object>
        <object label="&lt;span style=&quot;font-size: 10px&quot;&gt;&lt;b&gt;%name%&lt;/b&gt;&lt;br&gt;&lt;/span&gt;" placeholders="1" name="Aciona" id="OButciLznm7XMF_AVGfb-4">
          <mxCell style="endArrow=block;html=1;fontSize=10;fontColor=#404040;strokeWidth=1;endFill=1;strokeColor=#828282;elbow=vertical;metaEdit=1;exitX=0.5;exitY=1;exitDx=0;exitDy=0;entryX=0.5;entryY=0;entryDx=0;entryDy=0;" edge="1" parent="gKGEh-T8jXEcblkLXW2U-1" source="OButciLznm7XMF_AVGfb-2" target="OButciLznm7XMF_AVGfb-3">
            <mxGeometry width="50" height="50" relative="1" as="geometry">
              <mxPoint x="730" y="670" as="sourcePoint" />
              <mxPoint x="930" y="670" as="targetPoint" />
              <mxPoint as="offset" />
            </mxGeometry>
          </mxCell>
        </object>
        <object label="&lt;div&gt;&lt;span style=&quot;font-size: 14px&quot;&gt;&lt;b&gt;%name%&lt;/b&gt;&lt;/span&gt;&lt;/div&gt;&lt;div&gt;&lt;span style=&quot;font-size: 8px&quot;&gt;[Component: %technology%]&lt;/span&gt;&lt;/div&gt;&lt;div&gt;&lt;span style=&quot;font-size: 8px&quot;&gt;&lt;br&gt;&lt;/span&gt;&lt;/div&gt;&lt;div&gt;&lt;font size=&quot;1&quot;&gt;%description%&lt;/font&gt;&lt;/div&gt;" placeholders="1" name="CustomerRepository" technology="Spring Repository" description="Componente da camada de acesso a dados que abstrai a interação com a collection customers no MongoDB." id="OButciLznm7XMF_AVGfb-5">
          <mxCell style="rounded=0;whiteSpace=wrap;html=1;fillColor=#85baf0;fontColor=#000000;strokeColor=#6992BD;resizable=0;rotatable=0;metaEdit=1;allowArrows=0;" vertex="1" parent="gKGEh-T8jXEcblkLXW2U-1">
            <mxGeometry x="740" y="730" width="180" height="120" as="geometry" />
          </mxCell>
        </object>
        <object label="&lt;span style=&quot;font-size: 10px&quot;&gt;&lt;b&gt;%name%&lt;/b&gt;&lt;br&gt;&lt;/span&gt;" placeholders="1" name="Aciona" id="OButciLznm7XMF_AVGfb-6">
          <mxCell style="endArrow=block;html=1;fontSize=10;fontColor=#404040;strokeWidth=1;endFill=1;strokeColor=#828282;elbow=vertical;metaEdit=1;exitX=0.5;exitY=1;exitDx=0;exitDy=0;" edge="1" parent="gKGEh-T8jXEcblkLXW2U-1" source="OButciLznm7XMF_AVGfb-3" target="OButciLznm7XMF_AVGfb-5">
            <mxGeometry width="50" height="50" relative="1" as="geometry">
              <mxPoint x="840" y="440" as="sourcePoint" />
              <mxPoint x="840" y="540" as="targetPoint" />
              <mxPoint as="offset" />
            </mxGeometry>
          </mxCell>
        </object>
        <object label="&lt;div&gt;&lt;span style=&quot;font-size: 14px&quot;&gt;&lt;b&gt;%name%&lt;/b&gt;&lt;/span&gt;&lt;/div&gt;&lt;div&gt;&lt;span style=&quot;font-size: 8px&quot;&gt;[Component: %technology%]&lt;/span&gt;&lt;/div&gt;&lt;div&gt;&lt;span style=&quot;font-size: 8px&quot;&gt;&lt;br&gt;&lt;/span&gt;&lt;/div&gt;&lt;div&gt;&lt;font size=&quot;1&quot;&gt;%description%&lt;/font&gt;&lt;/div&gt;" placeholders="1" name="Customer" technology="Spring Model" description="Componente da camada de modelo que representa a estrutura de um documento na collection customers" id="OButciLznm7XMF_AVGfb-7">
          <mxCell style="rounded=0;whiteSpace=wrap;html=1;fillColor=#85baf0;fontColor=#000000;strokeColor=#6992BD;resizable=0;rotatable=0;metaEdit=1;allowArrows=0;" vertex="1" parent="gKGEh-T8jXEcblkLXW2U-1">
            <mxGeometry x="740" y="930" width="180" height="120" as="geometry" />
          </mxCell>
        </object>
        <object label="&lt;span style=&quot;font-size: 10px&quot;&gt;&lt;b&gt;%name%&lt;/b&gt;&lt;br&gt;&lt;/span&gt;" placeholders="1" name="Aciona" id="OButciLznm7XMF_AVGfb-8">
          <mxCell style="endArrow=block;html=1;fontSize=10;fontColor=#404040;strokeWidth=1;endFill=1;strokeColor=#828282;elbow=vertical;metaEdit=1;exitX=0.5;exitY=1;exitDx=0;exitDy=0;" edge="1" parent="gKGEh-T8jXEcblkLXW2U-1" source="OButciLznm7XMF_AVGfb-5">
            <mxGeometry width="50" height="50" relative="1" as="geometry">
              <mxPoint x="829.5" y="870" as="sourcePoint" />
              <mxPoint x="830" y="930" as="targetPoint" />
              <mxPoint as="offset" />
            </mxGeometry>
          </mxCell>
        </object>
        <object label="&lt;span style=&quot;font-size: 10px&quot;&gt;&lt;b&gt;%name%&lt;/b&gt;&lt;br&gt;[%technology%]&lt;br&gt;&lt;/span&gt;" placeholders="1" name="Usa" technology="HTTP" id="OButciLznm7XMF_AVGfb-9">
          <mxCell style="endArrow=block;html=1;fontSize=10;fontColor=#404040;strokeWidth=1;endFill=1;strokeColor=#828282;elbow=vertical;metaEdit=1;exitX=0.75;exitY=1;exitDx=0;exitDy=0;entryX=0.5;entryY=0;entryDx=0;entryDy=0;dashed=1;dashPattern=8 8;" edge="1" parent="gKGEh-T8jXEcblkLXW2U-1" target="OButciLznm7XMF_AVGfb-11" source="TCqwp3xKXtpxxQ4AMs_9-5">
            <mxGeometry width="50" height="50" relative="1" as="geometry">
              <mxPoint x="980" y="140" as="sourcePoint" />
              <mxPoint x="1040" y="449" as="targetPoint" />
              <mxPoint as="offset" />
            </mxGeometry>
          </mxCell>
        </object>
        <object label="&lt;b&gt;%name%&lt;/b&gt;&lt;br style=&quot;font-size: 10px&quot;&gt;[%technology%]" placeholders="1" name="Leituras e escritas" technology="MongoDB Wire Protocol" id="OButciLznm7XMF_AVGfb-10">
          <mxCell style="endArrow=block;html=1;fontSize=10;fontColor=#404040;strokeWidth=1;endFill=1;dashed=1;dashPattern=8 8;strokeColor=#828282;elbow=vertical;metaEdit=1;exitX=0.5;exitY=1;exitDx=0;exitDy=0;entryX=0.85;entryY=0.05;entryDx=0;entryDy=0;entryPerimeter=0;" edge="1" parent="gKGEh-T8jXEcblkLXW2U-1" source="OButciLznm7XMF_AVGfb-16" target="TCqwp3xKXtpxxQ4AMs_9-1">
            <mxGeometry width="50" height="50" relative="1" as="geometry">
              <mxPoint x="830" y="1244" as="sourcePoint" />
              <mxPoint x="1090" y="1180" as="targetPoint" />
              <mxPoint as="offset" />
            </mxGeometry>
          </mxCell>
        </object>
        <object label="&lt;div&gt;&lt;span style=&quot;font-size: 14px&quot;&gt;&lt;b&gt;%name%&lt;/b&gt;&lt;/span&gt;&lt;/div&gt;&lt;div&gt;&lt;span style=&quot;font-size: 8px&quot;&gt;[Component: %technology%]&lt;/span&gt;&lt;/div&gt;&lt;div&gt;&lt;span style=&quot;font-size: 8px&quot;&gt;&lt;br&gt;&lt;/span&gt;&lt;/div&gt;&lt;div&gt;&lt;font size=&quot;1&quot;&gt;%description%&lt;/font&gt;&lt;/div&gt;" placeholders="1" name="OrderController" technology="Spring MVC Controller" description="Deserializa o corpo da requisição JSON para um objeto Order" id="OButciLznm7XMF_AVGfb-11">
          <mxCell style="rounded=0;whiteSpace=wrap;html=1;fillColor=#85baf0;fontColor=#000000;strokeColor=#6992BD;resizable=0;rotatable=0;metaEdit=1;allowArrows=0;" vertex="1" parent="gKGEh-T8jXEcblkLXW2U-1">
            <mxGeometry x="1000" y="310" width="180" height="120" as="geometry" />
          </mxCell>
        </object>
        <object label="&lt;div&gt;&lt;span style=&quot;font-size: 14px&quot;&gt;&lt;b&gt;%name%&lt;/b&gt;&lt;/span&gt;&lt;/div&gt;&lt;div&gt;&lt;span style=&quot;font-size: 8px&quot;&gt;[Component: %technology%]&lt;/span&gt;&lt;/div&gt;&lt;div&gt;&lt;span style=&quot;font-size: 8px&quot;&gt;&lt;br&gt;&lt;/span&gt;&lt;/div&gt;&lt;div&gt;&lt;font size=&quot;1&quot;&gt;%description%&lt;/font&gt;&lt;/div&gt;" placeholders="1" name="OrderService" technology="Spring Service" description="Componente da camada de serviço que encapsula a lógica de negócio para a entidade Order" id="OButciLznm7XMF_AVGfb-12">
          <mxCell style="rounded=0;whiteSpace=wrap;html=1;fillColor=#85baf0;fontColor=#000000;strokeColor=#6992BD;resizable=0;rotatable=0;metaEdit=1;allowArrows=0;" vertex="1" parent="gKGEh-T8jXEcblkLXW2U-1">
            <mxGeometry x="1000" y="530" width="180" height="120" as="geometry" />
          </mxCell>
        </object>
        <object label="&lt;span style=&quot;font-size: 10px&quot;&gt;&lt;b&gt;%name%&lt;/b&gt;&lt;br&gt;&lt;/span&gt;" placeholders="1" name="Aciona" id="OButciLznm7XMF_AVGfb-13">
          <mxCell style="endArrow=block;html=1;fontSize=10;fontColor=#404040;strokeWidth=1;endFill=1;strokeColor=#828282;elbow=vertical;metaEdit=1;exitX=0.5;exitY=1;exitDx=0;exitDy=0;entryX=0.5;entryY=0;entryDx=0;entryDy=0;" edge="1" parent="gKGEh-T8jXEcblkLXW2U-1" source="OButciLznm7XMF_AVGfb-11" target="OButciLznm7XMF_AVGfb-12">
            <mxGeometry width="50" height="50" relative="1" as="geometry">
              <mxPoint x="990" y="670" as="sourcePoint" />
              <mxPoint x="1190" y="670" as="targetPoint" />
              <mxPoint as="offset" />
            </mxGeometry>
          </mxCell>
        </object>
        <object label="&lt;div&gt;&lt;span style=&quot;font-size: 14px&quot;&gt;&lt;b&gt;%name%&lt;/b&gt;&lt;/span&gt;&lt;/div&gt;&lt;div&gt;&lt;span style=&quot;font-size: 8px&quot;&gt;[Component: %technology%]&lt;/span&gt;&lt;/div&gt;&lt;div&gt;&lt;span style=&quot;font-size: 8px&quot;&gt;&lt;br&gt;&lt;/span&gt;&lt;/div&gt;&lt;div&gt;&lt;font size=&quot;1&quot;&gt;%description%&lt;/font&gt;&lt;/div&gt;" placeholders="1" name="OrderRepository" technology="Spring Repository" description="Componente da camada de acesso a dados que abstrai a interação com a collection order no MongoDB." id="OButciLznm7XMF_AVGfb-14">
          <mxCell style="rounded=0;whiteSpace=wrap;html=1;fillColor=#85baf0;fontColor=#000000;strokeColor=#6992BD;resizable=0;rotatable=0;metaEdit=1;allowArrows=0;" vertex="1" parent="gKGEh-T8jXEcblkLXW2U-1">
            <mxGeometry x="1000" y="730" width="180" height="120" as="geometry" />
          </mxCell>
        </object>
        <object label="&lt;span style=&quot;font-size: 10px&quot;&gt;&lt;b&gt;%name%&lt;/b&gt;&lt;br&gt;&lt;/span&gt;" placeholders="1" name="Aciona" id="OButciLznm7XMF_AVGfb-15">
          <mxCell style="endArrow=block;html=1;fontSize=10;fontColor=#404040;strokeWidth=1;endFill=1;strokeColor=#828282;elbow=vertical;metaEdit=1;exitX=0.5;exitY=1;exitDx=0;exitDy=0;" edge="1" parent="gKGEh-T8jXEcblkLXW2U-1" source="OButciLznm7XMF_AVGfb-12" target="OButciLznm7XMF_AVGfb-14">
            <mxGeometry width="50" height="50" relative="1" as="geometry">
              <mxPoint x="1100" y="440" as="sourcePoint" />
              <mxPoint x="1100" y="540" as="targetPoint" />
              <mxPoint as="offset" />
            </mxGeometry>
          </mxCell>
        </object>
        <object label="&lt;div&gt;&lt;span style=&quot;font-size: 14px&quot;&gt;&lt;b&gt;%name%&lt;/b&gt;&lt;/span&gt;&lt;/div&gt;&lt;div&gt;&lt;span style=&quot;font-size: 8px&quot;&gt;[Component: %technology%]&lt;/span&gt;&lt;/div&gt;&lt;div&gt;&lt;span style=&quot;font-size: 8px&quot;&gt;&lt;br&gt;&lt;/span&gt;&lt;/div&gt;&lt;div&gt;&lt;font size=&quot;1&quot;&gt;%description%&lt;/font&gt;&lt;/div&gt;" placeholders="1" name="Order" technology="Spring Model" description="Componente da camada de modelo que representa a estrutura de um documento na collection order" id="OButciLznm7XMF_AVGfb-16">
          <mxCell style="rounded=0;whiteSpace=wrap;html=1;fillColor=#85baf0;fontColor=#000000;strokeColor=#6992BD;resizable=0;rotatable=0;metaEdit=1;allowArrows=0;" vertex="1" parent="gKGEh-T8jXEcblkLXW2U-1">
            <mxGeometry x="1000" y="930" width="180" height="120" as="geometry" />
          </mxCell>
        </object>
        <object label="&lt;span style=&quot;font-size: 10px&quot;&gt;&lt;b&gt;%name%&lt;/b&gt;&lt;br&gt;&lt;/span&gt;" placeholders="1" name="Aciona" id="OButciLznm7XMF_AVGfb-17">
          <mxCell style="endArrow=block;html=1;fontSize=10;fontColor=#404040;strokeWidth=1;endFill=1;strokeColor=#828282;elbow=vertical;metaEdit=1;exitX=0.5;exitY=1;exitDx=0;exitDy=0;" edge="1" parent="gKGEh-T8jXEcblkLXW2U-1" source="OButciLznm7XMF_AVGfb-14">
            <mxGeometry width="50" height="50" relative="1" as="geometry">
              <mxPoint x="1089.5" y="870" as="sourcePoint" />
              <mxPoint x="1090" y="930" as="targetPoint" />
              <mxPoint as="offset" />
            </mxGeometry>
          </mxCell>
        </object>
      </root>
    </mxGraphModel>
  </diagram>
  <diagram name="legend" id="P2bkkBH-CL4G-ow8p-Mf">
    <mxGraphModel dx="1428" dy="841" grid="1" gridSize="10" guides="1" tooltips="1" connect="1" arrows="1" fold="1" page="1" pageScale="1" pageWidth="827" pageHeight="1169" background="#ffffff" math="0" shadow="0">
      <root>
        <object label="" id="bVHtLhDMsu5d2TnWgNyT-0">
          <mxCell />
        </object>
        <mxCell id="bVHtLhDMsu5d2TnWgNyT-1" parent="bVHtLhDMsu5d2TnWgNyT-0" />
        <mxCell id="bVHtLhDMsu5d2TnWgNyT-2" value="" style="rounded=1;whiteSpace=wrap;html=1;" vertex="1" parent="bVHtLhDMsu5d2TnWgNyT-1">
          <mxGeometry x="90" y="1020" width="1590" height="460" as="geometry" />
        </mxCell>
        <object label="" placeholders="1" instruction="edit data of the lower shape within the group" id="bVHtLhDMsu5d2TnWgNyT-3">
          <mxCell style="group;resizable=0;rotatable=0;allowArrows=0;" vertex="1" connectable="0" parent="bVHtLhDMsu5d2TnWgNyT-1">
            <mxGeometry x="110" y="1060" width="160" height="170" as="geometry" />
          </mxCell>
        </object>
        <object label="&lt;div style=&quot;color: rgb(255 , 255 , 255) ; white-space: normal&quot;&gt;&lt;span style=&quot;font-size: 14px&quot;&gt;&lt;b&gt;%name%&lt;/b&gt;&lt;/span&gt;&lt;/div&gt;&lt;div style=&quot;color: rgb(255 , 255 , 255) ; white-space: normal&quot;&gt;&lt;font style=&quot;font-size: 8px&quot;&gt;[Person]&lt;/font&gt;&lt;/div&gt;&lt;div style=&quot;color: rgb(255 , 255 , 255) ; white-space: normal ; font-size: 8px&quot;&gt;&lt;span style=&quot;font-size: x-small&quot;&gt;&lt;br&gt;&lt;/span&gt;&lt;/div&gt;&lt;div style=&quot;color: rgb(255 , 255 , 255) ; white-space: normal&quot;&gt;&lt;font size=&quot;1&quot;&gt;%description%&lt;/font&gt;&lt;/div&gt;" name="Actor Name" description="Description" placeholders="1" id="bVHtLhDMsu5d2TnWgNyT-4">
          <mxCell style="rounded=1;whiteSpace=wrap;html=1;strokeColor=#00315C;fillColor=#004179;fontColor=#000000;arcSize=31;metaEdit=1;allowArrows=0;" vertex="1" parent="bVHtLhDMsu5d2TnWgNyT-3">
            <mxGeometry y="70" width="160" height="100" as="geometry" />
          </mxCell>
        </object>
        <mxCell id="bVHtLhDMsu5d2TnWgNyT-5" value="" style="ellipse;whiteSpace=wrap;html=1;aspect=fixed;strokeColor=#00315C;fillColor=#004179;fontColor=#000000;allowArrows=0;" vertex="1" parent="bVHtLhDMsu5d2TnWgNyT-3">
          <mxGeometry x="40" width="80" height="80" as="geometry" />
        </mxCell>
        <object label="&lt;font style=&quot;font-size: 10px&quot;&gt;&lt;b&gt;%name%&lt;/b&gt;&lt;br style=&quot;font-size: 10px&quot;&gt;[Software System]&lt;/font&gt;" placeholders="1" name="Software System Name" id="bVHtLhDMsu5d2TnWgNyT-6">
          <mxCell style="rounded=0;whiteSpace=wrap;html=1;strokeColor=#828282;fontColor=#000000;align=left;labelPosition=center;verticalLabelPosition=middle;verticalAlign=bottom;strokeWidth=1;perimeterSpacing=0;spacing=4;spacingTop=0;fontSize=10;fillColor=none;dashed=1;dashPattern=14 14;rotatable=0;metaEdit=1;allowArrows=0;" vertex="1" parent="bVHtLhDMsu5d2TnWgNyT-1">
            <mxGeometry x="320" width="200" height="360" as="geometry" />
          </mxCell>
        </object>
        <object label="&lt;div style=&quot;color: rgb(255 , 255 , 255) ; white-space: normal&quot;&gt;&lt;span style=&quot;font-size: 14px&quot;&gt;&lt;b&gt;%name%&lt;/b&gt;&lt;/span&gt;&lt;/div&gt;&lt;div style=&quot;color: rgb(255 , 255 , 255) ; font-size: 12px ; white-space: normal&quot;&gt;&lt;font style=&quot;font-size: 8px&quot;&gt;[Container: %technology%]&lt;/font&gt;&lt;/div&gt;&lt;div style=&quot;color: rgb(255 , 255 , 255) ; white-space: normal ; font-size: 8px&quot;&gt;&lt;font style=&quot;line-height: 9.6px&quot;&gt;&lt;br&gt;&lt;/font&gt;&lt;/div&gt;&lt;div style=&quot;color: rgb(255 , 255 , 255) ; white-space: normal&quot;&gt;%description%&lt;/div&gt;" placeholders="1" name="Container Name" description="Description" technology="e.g. PostgreSQL" id="bVHtLhDMsu5d2TnWgNyT-7">
          <mxCell style="shape=cylinder;whiteSpace=wrap;html=1;boundedLbl=1;backgroundOutline=1;strokeColor=#2F6FA6;strokeWidth=1;fillColor=#3B8CD2;fontSize=9;fontColor=#000000;align=center;resizable=0;rotatable=0;metaEdit=1;allowArrows=0;" vertex="1" parent="bVHtLhDMsu5d2TnWgNyT-1">
            <mxGeometry x="320" y="680" width="180" height="120" as="geometry" />
          </mxCell>
        </object>
        <object label="&lt;b&gt;%name%&lt;/b&gt;&lt;br style=&quot;font-size: 10px&quot;&gt;[%technology%]" placeholders="1" name="Dependency Operation Name" technology="JDBC" id="bVHtLhDMsu5d2TnWgNyT-8">
          <mxCell style="endArrow=block;html=1;fontSize=10;fontColor=#404040;strokeWidth=1;endFill=1;dashed=1;dashPattern=8 8;strokeColor=#828282;elbow=vertical;metaEdit=1;" edge="1" parent="bVHtLhDMsu5d2TnWgNyT-1">
            <mxGeometry width="50" height="50" relative="1" as="geometry">
              <mxPoint x="320" y="399" as="sourcePoint" />
              <mxPoint x="520" y="399" as="targetPoint" />
            </mxGeometry>
          </mxCell>
        </object>
        <object label="&lt;span style=&quot;font-size: 10px&quot;&gt;&lt;b&gt;%name%&lt;/b&gt;&lt;br&gt;[%technology%]&lt;br&gt;&lt;/span&gt;" placeholders="1" name="Data Flow Item Name" technology="HTTP" id="bVHtLhDMsu5d2TnWgNyT-9">
          <mxCell style="endArrow=block;html=1;fontSize=10;fontColor=#404040;strokeWidth=1;endFill=1;strokeColor=#828282;elbow=vertical;metaEdit=1;" edge="1" parent="bVHtLhDMsu5d2TnWgNyT-1">
            <mxGeometry width="50" height="50" relative="1" as="geometry">
              <mxPoint x="320" y="439" as="sourcePoint" />
              <mxPoint x="520" y="439" as="targetPoint" />
            </mxGeometry>
          </mxCell>
        </object>
        <object label="%name%&lt;br style=&quot;font-size: 10px&quot;&gt;&lt;font size=&quot;1&quot;&gt;&lt;span style=&quot;font-weight: 400&quot;&gt;%description%&lt;/span&gt;&lt;/font&gt;" placeholders="1" name="Diagram Name" description="Description" id="bVHtLhDMsu5d2TnWgNyT-10">
          <mxCell style="text;html=1;resizable=0;points=[];autosize=1;align=left;verticalAlign=top;spacingTop=-4;fontSize=14;fontColor=#404040;fontStyle=1;rotatable=0;metaEdit=1;allowArrows=0;" vertex="1" parent="bVHtLhDMsu5d2TnWgNyT-1">
            <mxGeometry x="80" y="900" width="110" height="40" as="geometry" />
          </mxCell>
        </object>
        <object label="&lt;div&gt;&lt;span style=&quot;font-size: 14px&quot;&gt;&lt;b&gt;%name%&lt;/b&gt;&lt;/span&gt;&lt;/div&gt;&lt;div&gt;&lt;span style=&quot;font-size: 8px&quot;&gt;[Software System&lt;/span&gt;&lt;span style=&quot;font-size: 8px&quot;&gt;]&lt;/span&gt;&lt;/div&gt;&lt;div&gt;&lt;span style=&quot;font-size: 8px&quot;&gt;&lt;br&gt;&lt;/span&gt;&lt;/div&gt;&lt;div&gt;&lt;font size=&quot;1&quot;&gt;%description%&lt;/font&gt;&lt;/div&gt;" placeholders="1" name="External System Name" description="Description of Software System" id="bVHtLhDMsu5d2TnWgNyT-11">
          <mxCell style="rounded=0;whiteSpace=wrap;html=1;fillColor=#999999;fontColor=#FFFFFF;strokeColor=#828282;resizable=0;rotatable=0;metaEdit=1;allowArrows=0;" vertex="1" parent="bVHtLhDMsu5d2TnWgNyT-1">
            <mxGeometry x="80" y="420" width="180" height="120" as="geometry" />
          </mxCell>
        </object>
        <object label="&lt;div&gt;&lt;span style=&quot;font-size: 14px&quot;&gt;&lt;b&gt;%name%&lt;/b&gt;&lt;/span&gt;&lt;/div&gt;&lt;div&gt;&lt;span style=&quot;font-size: 8px&quot;&gt;[Software System]&lt;/span&gt;&lt;/div&gt;&lt;div&gt;&lt;span style=&quot;font-size: 8px&quot;&gt;&lt;br&gt;&lt;/span&gt;&lt;/div&gt;&lt;div&gt;&lt;font size=&quot;1&quot;&gt;%description%&lt;/font&gt;&lt;/div&gt;" placeholders="1" name="Software System Name" description="Description" id="bVHtLhDMsu5d2TnWgNyT-12">
          <mxCell style="rounded=0;whiteSpace=wrap;html=1;fillColor=#0067BA;fontColor=#FFFFFF;strokeColor=#005DA8;resizable=0;rotatable=0;metaEdit=1;allowArrows=0;" vertex="1" parent="bVHtLhDMsu5d2TnWgNyT-1">
            <mxGeometry x="80" y="580" width="180" height="120" as="geometry" />
          </mxCell>
        </object>
        <object label="&lt;div&gt;&lt;span style=&quot;font-size: 14px&quot;&gt;&lt;b&gt;%name%&lt;/b&gt;&lt;/span&gt;&lt;/div&gt;&lt;div&gt;&lt;span style=&quot;font-size: 8px&quot;&gt;[Container: %technology%]&lt;/span&gt;&lt;/div&gt;&lt;div&gt;&lt;span style=&quot;font-size: 8px&quot;&gt;&lt;br&gt;&lt;/span&gt;&lt;/div&gt;&lt;div&gt;&lt;font size=&quot;1&quot;&gt;%description%&lt;/font&gt;&lt;/div&gt;" placeholders="1" name="Container Name" technology="e.g. Python, Flask" description="Description" id="bVHtLhDMsu5d2TnWgNyT-13">
          <mxCell style="rounded=0;whiteSpace=wrap;html=1;fillColor=#3B8CD2;fontColor=#FFFFFF;strokeColor=#2F6FA6;resizable=0;rotatable=0;metaEdit=1;allowArrows=0;" vertex="1" parent="bVHtLhDMsu5d2TnWgNyT-1">
            <mxGeometry x="320" y="520" width="180" height="120" as="geometry" />
          </mxCell>
        </object>
        <object label="&lt;div&gt;&lt;span style=&quot;font-size: 14px&quot;&gt;&lt;b&gt;%name%&lt;/b&gt;&lt;/span&gt;&lt;/div&gt;&lt;div&gt;&lt;span style=&quot;font-size: 8px&quot;&gt;[Component: %technology%]&lt;/span&gt;&lt;/div&gt;&lt;div&gt;&lt;span style=&quot;font-size: 8px&quot;&gt;&lt;br&gt;&lt;/span&gt;&lt;/div&gt;&lt;div&gt;&lt;font size=&quot;1&quot;&gt;%description%&lt;/font&gt;&lt;/div&gt;" placeholders="1" name="Component Name" technology="e.g. Spring Bean" description="Description" id="bVHtLhDMsu5d2TnWgNyT-14">
          <mxCell style="rounded=0;whiteSpace=wrap;html=1;fillColor=#85baf0;fontColor=#000000;strokeColor=#6992BD;resizable=0;rotatable=0;metaEdit=1;allowArrows=0;" vertex="1" parent="bVHtLhDMsu5d2TnWgNyT-1">
            <mxGeometry x="80" y="740" width="180" height="120" as="geometry" />
          </mxCell>
        </object>
        <object label="&lt;font style=&quot;font-size: 10px&quot;&gt;&lt;b&gt;%name%&lt;/b&gt;&lt;br style=&quot;font-size: 10px&quot;&gt;[Container]&lt;/font&gt;" placeholders="1" name="Container Name" id="bVHtLhDMsu5d2TnWgNyT-15">
          <mxCell style="rounded=0;whiteSpace=wrap;html=1;strokeColor=#828282;fillColor=none;fontColor=#000000;align=left;labelPosition=center;verticalLabelPosition=middle;verticalAlign=bottom;dashed=1;strokeWidth=1;perimeterSpacing=0;spacing=4;spacingTop=0;fontSize=10;dashPattern=14 14;container=0;rotatable=0;metaEdit=1;allowArrows=0;" vertex="1" parent="bVHtLhDMsu5d2TnWgNyT-1">
            <mxGeometry x="560" y="400" width="200" height="370" as="geometry">
              <mxRectangle x="560" y="40" width="110" height="30" as="alternateBounds" />
            </mxGeometry>
          </mxCell>
        </object>
        <object label="&lt;font style=&quot;font-size: 10px&quot;&gt;&lt;b&gt;%name%&lt;/b&gt;&lt;br style=&quot;font-size: 10px&quot;&gt;[Domain]&lt;/font&gt;" placeholders="1" name="Domain Name" id="bVHtLhDMsu5d2TnWgNyT-16">
          <mxCell style="rounded=0;whiteSpace=wrap;html=1;strokeColor=#828282;fillColor=none;fontColor=#000000;align=left;labelPosition=center;verticalLabelPosition=middle;verticalAlign=bottom;dashed=1;strokeWidth=1;perimeterSpacing=0;spacing=4;spacingTop=0;fontSize=10;dashPattern=14 14;rotatable=0;metaEdit=1;allowArrows=0;" vertex="1" parent="bVHtLhDMsu5d2TnWgNyT-1">
            <mxGeometry x="560" width="200" height="360" as="geometry" />
          </mxCell>
        </object>
        <object label="" placeholders="1" instruction="edit data of the lower shape within the group" id="bVHtLhDMsu5d2TnWgNyT-17">
          <mxCell style="group;resizable=0;rotatable=0;metaEdit=1;allowArrows=0;" vertex="1" connectable="0" parent="bVHtLhDMsu5d2TnWgNyT-1">
            <mxGeometry x="90" width="160" height="170" as="geometry" />
          </mxCell>
        </object>
        <object label="&lt;div style=&quot;color: rgb(255 , 255 , 255) ; white-space: normal&quot;&gt;&lt;span style=&quot;font-size: 14px&quot;&gt;&lt;b&gt;%name%&lt;/b&gt;&lt;/span&gt;&lt;/div&gt;&lt;div style=&quot;color: rgb(255 , 255 , 255) ; white-space: normal&quot;&gt;&lt;font style=&quot;font-size: 8px&quot;&gt;[Person]&lt;/font&gt;&lt;/div&gt;&lt;div style=&quot;color: rgb(255 , 255 , 255) ; white-space: normal ; font-size: 8px&quot;&gt;&lt;span style=&quot;font-size: x-small&quot;&gt;&lt;br&gt;&lt;/span&gt;&lt;/div&gt;&lt;div style=&quot;color: rgb(255 , 255 , 255) ; white-space: normal&quot;&gt;&lt;font size=&quot;1&quot;&gt;%description%&lt;/font&gt;&lt;/div&gt;" name="External Actor Name" description="Description" placeholders="1" id="bVHtLhDMsu5d2TnWgNyT-18">
          <mxCell style="rounded=1;whiteSpace=wrap;html=1;strokeColor=#828282;fillColor=#999999;fontColor=#000000;arcSize=31;metaEdit=1;allowArrows=0;" vertex="1" parent="bVHtLhDMsu5d2TnWgNyT-17">
            <mxGeometry y="70" width="160" height="100" as="geometry" />
          </mxCell>
        </object>
        <mxCell id="bVHtLhDMsu5d2TnWgNyT-19" value="" style="ellipse;whiteSpace=wrap;html=1;aspect=fixed;strokeColor=#828282;fillColor=#999999;fontColor=#000000;allowArrows=0;" vertex="1" parent="bVHtLhDMsu5d2TnWgNyT-17">
          <mxGeometry x="40" width="80" height="80" as="geometry" />
        </mxCell>
        <object label="&lt;span style=&quot;font-size: 10px&quot;&gt;&lt;b&gt;%name%&lt;/b&gt;&lt;br&gt;&lt;/span&gt;" placeholders="1" name="Data Flow Item Name" id="bVHtLhDMsu5d2TnWgNyT-20">
          <mxCell style="endArrow=block;html=1;fontSize=10;fontColor=#404040;strokeWidth=1;endFill=1;strokeColor=#828282;elbow=vertical;metaEdit=1;" edge="1" parent="bVHtLhDMsu5d2TnWgNyT-1">
            <mxGeometry width="50" height="50" relative="1" as="geometry">
              <mxPoint x="320" y="479" as="sourcePoint" />
              <mxPoint x="520" y="479" as="targetPoint" />
            </mxGeometry>
          </mxCell>
        </object>
        <object label="&lt;font style=&quot;font-size: 10px&quot;&gt;&lt;b&gt;%name%&lt;/b&gt;&lt;br style=&quot;font-size: 10px&quot;&gt;[Enterprise]&lt;/font&gt;" placeholders="1" name="Enterprise Name" id="bVHtLhDMsu5d2TnWgNyT-21">
          <mxCell style="rounded=0;whiteSpace=wrap;html=1;strokeColor=#828282;fillColor=none;fontColor=#000000;align=left;labelPosition=center;verticalLabelPosition=middle;verticalAlign=bottom;dashed=1;strokeWidth=1;perimeterSpacing=0;spacing=4;spacingTop=0;fontSize=10;dashPattern=14 14;rotatable=0;metaEdit=1;allowArrows=0;" vertex="1" parent="bVHtLhDMsu5d2TnWgNyT-1">
            <mxGeometry x="800" width="200" height="360" as="geometry" />
          </mxCell>
        </object>
        <object label="&lt;div style=&quot;color: rgb(255 , 255 , 255) ; white-space: normal&quot;&gt;&lt;span style=&quot;font-size: 14px&quot;&gt;&lt;b&gt;%name%&lt;/b&gt;&lt;/span&gt;&lt;/div&gt;&lt;div style=&quot;color: rgb(255 , 255 , 255) ; font-size: 12px ; white-space: normal&quot;&gt;&lt;font style=&quot;font-size: 8px&quot;&gt;[Container: %technology%]&lt;/font&gt;&lt;/div&gt;&lt;div style=&quot;color: rgb(255 , 255 , 255) ; white-space: normal ; font-size: 8px&quot;&gt;&lt;font style=&quot;line-height: 9.6px&quot;&gt;&lt;br&gt;&lt;/font&gt;&lt;/div&gt;&lt;div style=&quot;color: rgb(255 , 255 , 255) ; white-space: normal&quot;&gt;%description%&lt;/div&gt;" placeholders="1" name="Container Name" description="Description" technology="e.g. Kafka" id="bVHtLhDMsu5d2TnWgNyT-22">
          <mxCell style="shape=cylinder;whiteSpace=wrap;html=1;boundedLbl=1;backgroundOutline=1;strokeColor=#2F6FA6;strokeWidth=1;fillColor=#3B8CD2;fontSize=9;fontColor=#000000;align=center;resizable=1;rotatable=0;direction=south;metaEdit=1;allowArrows=0;" vertex="1" parent="bVHtLhDMsu5d2TnWgNyT-1">
            <mxGeometry x="320" y="840" width="180" height="120" as="geometry" />
          </mxCell>
        </object>
        <object label="&lt;b&gt;%name%&lt;/b&gt;&lt;br&gt;[Deployment Node: %technology%]" placeholders="1" name="Deployment Node Name" technology="e.g. AWS EKS pod" min-node-count="x2" id="bVHtLhDMsu5d2TnWgNyT-23">
          <mxCell style="rounded=0;arcSize=20;fillColor=none;strokeColor=#828282;fontColor=#000000;labelBackgroundColor=none;align=left;verticalAlign=bottom;labelBorderColor=none;spacingTop=0;spacing=4;rotatable=0;perimeter=rectanglePerimeter;labelPadding=0;allowArrows=0;connectable=1;expand=0;recursiveResize=0;editable=1;pointerEvents=1;absoluteArcSize=1;container=0;dropTarget=0;fontSize=10;fontStyle=0;whiteSpace=wrap;html=1;metaEdit=1;" vertex="1" parent="bVHtLhDMsu5d2TnWgNyT-1">
            <mxGeometry x="800" y="400" width="240" height="370" as="geometry" />
          </mxCell>
        </object>
        <object label="&lt;font style=&quot;font-size: 18px&quot;&gt;&lt;b style=&quot;font-size: 18px&quot;&gt;%min-node-count%&lt;/b&gt;&lt;/font&gt;" placeholders="1" id="bVHtLhDMsu5d2TnWgNyT-24">
          <mxCell style="text;html=1;strokeColor=none;fillColor=none;align=right;verticalAlign=bottom;whiteSpace=wrap;rounded=0;rotation=0;part=1;fontColor=#404040;connectable=0;allowArrows=0;movable=0;resizable=0;pointerEvents=1;deletable=0;fontSize=18;metaEdit=1;editable=0;" vertex="1" parent="bVHtLhDMsu5d2TnWgNyT-23">
            <mxGeometry x="1" y="1" width="40" height="33" relative="1" as="geometry">
              <mxPoint x="-44" y="-34" as="offset" />
            </mxGeometry>
          </mxCell>
        </object>
        <mxCell id="bVHtLhDMsu5d2TnWgNyT-25" value="&lt;font style=&quot;font-size: 16px;&quot;&gt;&lt;b&gt;Legend&lt;/b&gt;&lt;/font&gt;" style="text;html=1;align=center;verticalAlign=middle;whiteSpace=wrap;rounded=0;" vertex="1" parent="bVHtLhDMsu5d2TnWgNyT-1">
          <mxGeometry x="120" y="1030" width="60" height="30" as="geometry" />
        </mxCell>
        <object label="" placeholders="1" instruction="edit data of the lower shape within the group" id="bVHtLhDMsu5d2TnWgNyT-26">
          <mxCell style="group;resizable=0;rotatable=0;allowArrows=0;" vertex="1" connectable="0" parent="bVHtLhDMsu5d2TnWgNyT-1">
            <mxGeometry x="100" y="210" width="160" height="170" as="geometry" />
          </mxCell>
        </object>
        <object label="&lt;div style=&quot;color: rgb(255 , 255 , 255) ; white-space: normal&quot;&gt;&lt;span style=&quot;font-size: 14px&quot;&gt;&lt;b&gt;%name%&lt;/b&gt;&lt;/span&gt;&lt;/div&gt;&lt;div style=&quot;color: rgb(255 , 255 , 255) ; white-space: normal&quot;&gt;&lt;font style=&quot;font-size: 8px&quot;&gt;[Person]&lt;/font&gt;&lt;/div&gt;&lt;div style=&quot;color: rgb(255 , 255 , 255) ; white-space: normal ; font-size: 8px&quot;&gt;&lt;span style=&quot;font-size: x-small&quot;&gt;&lt;br&gt;&lt;/span&gt;&lt;/div&gt;&lt;div style=&quot;color: rgb(255 , 255 , 255) ; white-space: normal&quot;&gt;&lt;font size=&quot;1&quot;&gt;%description%&lt;/font&gt;&lt;/div&gt;" name="Actor Name" description="Description" placeholders="1" id="bVHtLhDMsu5d2TnWgNyT-27">
          <mxCell style="rounded=1;whiteSpace=wrap;html=1;strokeColor=#00315C;fillColor=#004179;fontColor=#000000;arcSize=31;metaEdit=1;allowArrows=0;" vertex="1" parent="bVHtLhDMsu5d2TnWgNyT-26">
            <mxGeometry y="70" width="160" height="100" as="geometry" />
          </mxCell>
        </object>
        <mxCell id="bVHtLhDMsu5d2TnWgNyT-28" value="" style="ellipse;whiteSpace=wrap;html=1;aspect=fixed;strokeColor=#00315C;fillColor=#004179;fontColor=#000000;allowArrows=0;" vertex="1" parent="bVHtLhDMsu5d2TnWgNyT-26">
          <mxGeometry x="40" width="80" height="80" as="geometry" />
        </mxCell>
        <object label="&lt;div&gt;&lt;span style=&quot;font-size: 14px&quot;&gt;&lt;b&gt;%name%&lt;/b&gt;&lt;/span&gt;&lt;/div&gt;&lt;div&gt;&lt;span style=&quot;font-size: 8px&quot;&gt;[Software System]&lt;/span&gt;&lt;/div&gt;&lt;div&gt;&lt;span style=&quot;font-size: 8px&quot;&gt;&lt;br&gt;&lt;/span&gt;&lt;/div&gt;&lt;div&gt;&lt;font size=&quot;1&quot;&gt;%description%&lt;/font&gt;&lt;/div&gt;" placeholders="1" name="Software System Name" description="Description" id="bVHtLhDMsu5d2TnWgNyT-29">
          <mxCell style="rounded=0;whiteSpace=wrap;html=1;fillColor=#0067BA;fontColor=#FFFFFF;strokeColor=#005DA8;resizable=0;rotatable=0;metaEdit=1;allowArrows=0;" vertex="1" parent="bVHtLhDMsu5d2TnWgNyT-1">
            <mxGeometry x="310" y="1110" width="180" height="120" as="geometry" />
          </mxCell>
        </object>
        <object label="&lt;div&gt;&lt;span style=&quot;font-size: 14px&quot;&gt;&lt;b&gt;%name%&lt;/b&gt;&lt;/span&gt;&lt;/div&gt;&lt;div&gt;&lt;span style=&quot;font-size: 8px&quot;&gt;[Software System&lt;/span&gt;&lt;span style=&quot;font-size: 8px&quot;&gt;]&lt;/span&gt;&lt;/div&gt;&lt;div&gt;&lt;span style=&quot;font-size: 8px&quot;&gt;&lt;br&gt;&lt;/span&gt;&lt;/div&gt;&lt;div&gt;&lt;font size=&quot;1&quot;&gt;%description%&lt;/font&gt;&lt;/div&gt;" placeholders="1" name="External System Name" description="Description of Software System" id="bVHtLhDMsu5d2TnWgNyT-30">
          <mxCell style="rounded=0;whiteSpace=wrap;html=1;fillColor=#999999;fontColor=#FFFFFF;strokeColor=#828282;resizable=0;rotatable=0;metaEdit=1;allowArrows=0;" vertex="1" parent="bVHtLhDMsu5d2TnWgNyT-1">
            <mxGeometry x="530" y="1110" width="180" height="120" as="geometry" />
          </mxCell>
        </object>
        <object label="&lt;div&gt;&lt;span style=&quot;font-size: 14px&quot;&gt;&lt;b&gt;%name%&lt;/b&gt;&lt;/span&gt;&lt;/div&gt;&lt;div&gt;&lt;span style=&quot;font-size: 8px&quot;&gt;[Container: %technology%]&lt;/span&gt;&lt;/div&gt;&lt;div&gt;&lt;span style=&quot;font-size: 8px&quot;&gt;&lt;br&gt;&lt;/span&gt;&lt;/div&gt;&lt;div&gt;&lt;font size=&quot;1&quot;&gt;%description%&lt;/font&gt;&lt;/div&gt;" placeholders="1" name="Container Name" technology="e.g. Python, Flask" description="Description" id="bVHtLhDMsu5d2TnWgNyT-31">
          <mxCell style="rounded=0;whiteSpace=wrap;html=1;fillColor=#3B8CD2;fontColor=#FFFFFF;strokeColor=#2F6FA6;resizable=0;rotatable=0;metaEdit=1;allowArrows=0;" vertex="1" parent="bVHtLhDMsu5d2TnWgNyT-1">
            <mxGeometry x="750" y="1110" width="180" height="120" as="geometry" />
          </mxCell>
        </object>
        <object label="&lt;div&gt;&lt;span style=&quot;font-size: 14px&quot;&gt;&lt;b&gt;%name%&lt;/b&gt;&lt;/span&gt;&lt;/div&gt;&lt;div&gt;&lt;span style=&quot;font-size: 8px&quot;&gt;[Component: %technology%]&lt;/span&gt;&lt;/div&gt;&lt;div&gt;&lt;span style=&quot;font-size: 8px&quot;&gt;&lt;br&gt;&lt;/span&gt;&lt;/div&gt;&lt;div&gt;&lt;font size=&quot;1&quot;&gt;%description%&lt;/font&gt;&lt;/div&gt;" placeholders="1" name="Component Name" technology="e.g. Spring Bean" description="Description" id="bVHtLhDMsu5d2TnWgNyT-32">
          <mxCell style="rounded=0;whiteSpace=wrap;html=1;fillColor=#85baf0;fontColor=#000000;strokeColor=#6992BD;resizable=0;rotatable=0;metaEdit=1;allowArrows=0;" vertex="1" parent="bVHtLhDMsu5d2TnWgNyT-1">
            <mxGeometry x="970" y="1110" width="180" height="120" as="geometry" />
          </mxCell>
        </object>
        <object label="&lt;b&gt;%name%&lt;/b&gt;&lt;br style=&quot;font-size: 10px&quot;&gt;[%technology%]" placeholders="1" name="Dependency Operation Name" technology="JDBC" id="bVHtLhDMsu5d2TnWgNyT-33">
          <mxCell style="endArrow=block;html=1;fontSize=10;fontColor=#404040;strokeWidth=1;endFill=1;dashed=1;dashPattern=8 8;strokeColor=#828282;elbow=vertical;metaEdit=1;" edge="1" parent="bVHtLhDMsu5d2TnWgNyT-1">
            <mxGeometry width="50" height="50" relative="1" as="geometry">
              <mxPoint x="1220" y="1120" as="sourcePoint" />
              <mxPoint x="1420" y="1120" as="targetPoint" />
            </mxGeometry>
          </mxCell>
        </object>
        <object label="&lt;span style=&quot;font-size: 10px&quot;&gt;&lt;b&gt;%name%&lt;/b&gt;&lt;br&gt;[%technology%]&lt;br&gt;&lt;/span&gt;" placeholders="1" name="Data Flow Item Name" technology="HTTP" id="bVHtLhDMsu5d2TnWgNyT-34">
          <mxCell style="endArrow=block;html=1;fontSize=10;fontColor=#404040;strokeWidth=1;endFill=1;strokeColor=#828282;elbow=vertical;metaEdit=1;" edge="1" parent="bVHtLhDMsu5d2TnWgNyT-1">
            <mxGeometry width="50" height="50" relative="1" as="geometry">
              <mxPoint x="1220" y="1160" as="sourcePoint" />
              <mxPoint x="1420" y="1160" as="targetPoint" />
            </mxGeometry>
          </mxCell>
        </object>
        <object label="&lt;span style=&quot;font-size: 10px&quot;&gt;&lt;b&gt;%name%&lt;/b&gt;&lt;br&gt;&lt;/span&gt;" placeholders="1" name="Data Flow Item Name" id="bVHtLhDMsu5d2TnWgNyT-35">
          <mxCell style="endArrow=block;html=1;fontSize=10;fontColor=#404040;strokeWidth=1;endFill=1;strokeColor=#828282;elbow=vertical;metaEdit=1;" edge="1" parent="bVHtLhDMsu5d2TnWgNyT-1">
            <mxGeometry width="50" height="50" relative="1" as="geometry">
              <mxPoint x="1220" y="1200" as="sourcePoint" />
              <mxPoint x="1420" y="1200" as="targetPoint" />
            </mxGeometry>
          </mxCell>
        </object>
        <object label="&lt;div style=&quot;color: rgb(255 , 255 , 255) ; white-space: normal&quot;&gt;&lt;span style=&quot;font-size: 14px&quot;&gt;&lt;b&gt;%name%&lt;/b&gt;&lt;/span&gt;&lt;/div&gt;&lt;div style=&quot;color: rgb(255 , 255 , 255) ; font-size: 12px ; white-space: normal&quot;&gt;&lt;font style=&quot;font-size: 8px&quot;&gt;[Container: %technology%]&lt;/font&gt;&lt;/div&gt;&lt;div style=&quot;color: rgb(255 , 255 , 255) ; white-space: normal ; font-size: 8px&quot;&gt;&lt;font style=&quot;line-height: 9.6px&quot;&gt;&lt;br&gt;&lt;/font&gt;&lt;/div&gt;&lt;div style=&quot;color: rgb(255 , 255 , 255) ; white-space: normal&quot;&gt;%description%&lt;/div&gt;" placeholders="1" name="Container Name" description="Description" technology="e.g. PostgreSQL" id="bVHtLhDMsu5d2TnWgNyT-36">
          <mxCell style="shape=cylinder;whiteSpace=wrap;html=1;boundedLbl=1;backgroundOutline=1;strokeColor=#2F6FA6;strokeWidth=1;fillColor=#3B8CD2;fontSize=9;fontColor=#000000;align=center;resizable=0;rotatable=0;metaEdit=1;allowArrows=0;" vertex="1" parent="bVHtLhDMsu5d2TnWgNyT-1">
            <mxGeometry x="760" y="1310" width="180" height="120" as="geometry" />
          </mxCell>
        </object>
        <object label="&lt;div style=&quot;color: rgb(255 , 255 , 255) ; white-space: normal&quot;&gt;&lt;span style=&quot;font-size: 14px&quot;&gt;&lt;b&gt;%name%&lt;/b&gt;&lt;/span&gt;&lt;/div&gt;&lt;div style=&quot;color: rgb(255 , 255 , 255) ; font-size: 12px ; white-space: normal&quot;&gt;&lt;font style=&quot;font-size: 8px&quot;&gt;[Container: %technology%]&lt;/font&gt;&lt;/div&gt;&lt;div style=&quot;color: rgb(255 , 255 , 255) ; white-space: normal ; font-size: 8px&quot;&gt;&lt;font style=&quot;line-height: 9.6px&quot;&gt;&lt;br&gt;&lt;/font&gt;&lt;/div&gt;&lt;div style=&quot;color: rgb(255 , 255 , 255) ; white-space: normal&quot;&gt;%description%&lt;/div&gt;" placeholders="1" name="Container Name" description="Description" technology="e.g. Kafka" id="bVHtLhDMsu5d2TnWgNyT-37">
          <mxCell style="shape=cylinder;whiteSpace=wrap;html=1;boundedLbl=1;backgroundOutline=1;strokeColor=#2F6FA6;strokeWidth=1;fillColor=#3B8CD2;fontSize=9;fontColor=#000000;align=center;resizable=1;rotatable=0;direction=south;metaEdit=1;allowArrows=0;" vertex="1" parent="bVHtLhDMsu5d2TnWgNyT-1">
            <mxGeometry x="1000" y="1300" width="180" height="120" as="geometry" />
          </mxCell>
        </object>
        <object label="&lt;b&gt;%name%&lt;/b&gt;&lt;br&gt;[Deployment Node: %technology%]" placeholders="1" name="Deployment Node Name" technology="e.g. AWS EKS pod" min-node-count="x2" id="bVHtLhDMsu5d2TnWgNyT-38">
          <mxCell style="rounded=0;arcSize=20;fillColor=none;strokeColor=#828282;fontColor=#000000;labelBackgroundColor=none;align=left;verticalAlign=bottom;labelBorderColor=none;spacingTop=0;spacing=4;rotatable=0;perimeter=rectanglePerimeter;labelPadding=0;allowArrows=0;connectable=1;expand=0;recursiveResize=0;editable=1;pointerEvents=1;absoluteArcSize=1;container=0;dropTarget=0;fontSize=10;fontStyle=0;whiteSpace=wrap;html=1;metaEdit=1;" vertex="1" parent="bVHtLhDMsu5d2TnWgNyT-1">
            <mxGeometry x="180" y="1305" width="200" height="130" as="geometry" />
          </mxCell>
        </object>
        <object label="&lt;font style=&quot;font-size: 18px&quot;&gt;&lt;b style=&quot;font-size: 18px&quot;&gt;%min-node-count%&lt;/b&gt;&lt;/font&gt;" placeholders="1" id="bVHtLhDMsu5d2TnWgNyT-39">
          <mxCell style="text;html=1;strokeColor=none;fillColor=none;align=right;verticalAlign=bottom;whiteSpace=wrap;rounded=0;rotation=0;part=1;fontColor=#404040;connectable=0;allowArrows=0;movable=0;resizable=0;pointerEvents=1;deletable=0;fontSize=18;metaEdit=1;editable=0;" vertex="1" parent="bVHtLhDMsu5d2TnWgNyT-38">
            <mxGeometry x="1" y="1" width="40" height="33" relative="1" as="geometry">
              <mxPoint x="-44" y="-34" as="offset" />
            </mxGeometry>
          </mxCell>
        </object>
        <object label="&lt;font style=&quot;font-size: 10px&quot;&gt;&lt;b&gt;%name%&lt;/b&gt;&lt;br style=&quot;font-size: 10px&quot;&gt;[Domain]&lt;/font&gt;" placeholders="1" name="Domain Name" id="bVHtLhDMsu5d2TnWgNyT-40">
          <mxCell style="rounded=0;whiteSpace=wrap;html=1;strokeColor=#828282;fillColor=none;fontColor=#000000;align=left;labelPosition=center;verticalLabelPosition=middle;verticalAlign=bottom;dashed=1;strokeWidth=1;perimeterSpacing=0;spacing=4;spacingTop=0;fontSize=10;dashPattern=14 14;rotatable=0;metaEdit=1;allowArrows=0;" vertex="1" parent="bVHtLhDMsu5d2TnWgNyT-1">
            <mxGeometry x="430" y="1305" width="200" height="135" as="geometry" />
          </mxCell>
        </object>
      </root>
    </mxGraphModel>
  </diagram>
</mxfile>
